<?xml version="1.0" encoding="utf-8" standalone="no"?>
<!DOCTYPE svg PUBLIC "-//W3C//DTD SVG 1.1//EN"
  "http://www.w3.org/Graphics/SVG/1.1/DTD/svg11.dtd">
<svg xmlns:xlink="http://www.w3.org/1999/xlink" width="460.8pt" height="345.6pt" viewBox="0 0 460.8 345.6" xmlns="http://www.w3.org/2000/svg" version="1.1">
 <metadata>
  <rdf:RDF xmlns:dc="http://purl.org/dc/elements/1.1/" xmlns:cc="http://creativecommons.org/ns#" xmlns:rdf="http://www.w3.org/1999/02/22-rdf-syntax-ns#">
   <cc:Work>
    <dc:type rdf:resource="http://purl.org/dc/dcmitype/StillImage"/>
    <dc:date>2023-03-27T15:43:54.408503</dc:date>
    <dc:format>image/svg+xml</dc:format>
    <dc:creator>
     <cc:Agent>
      <dc:title>Matplotlib v3.7.1, https://matplotlib.org/</dc:title>
     </cc:Agent>
    </dc:creator>
   </cc:Work>
  </rdf:RDF>
 </metadata>
 <defs>
  <style type="text/css">*{stroke-linejoin: round; stroke-linecap: butt}</style>
 </defs>
 <g id="figure_1">
  <g id="patch_1">
   <path d="M 0 345.6 
L 460.8 345.6 
L 460.8 0 
L 0 0 
z
" style="fill: #ffffff"/>
  </g>
  <g id="axes_1">
   <g id="patch_2">
    <path d="M 57.6 307.584 
L 414.72 307.584 
L 414.72 41.472 
L 57.6 41.472 
z
" style="fill: #ffffff"/>
   </g>
   <g id="patch_3">
    <path d="M 73.832727 307.584 
L 75.83368 307.584 
L 75.83368 273.894303 
L 73.832727 273.894303 
z
" clip-path="url(#p8225237fb9)" style="fill: #1f77b4"/>
   </g>
   <g id="patch_4">
    <path d="M 76.333918 307.584 
L 78.33487 307.584 
L 78.33487 280.834896 
L 76.333918 280.834896 
z
" clip-path="url(#p8225237fb9)" style="fill: #1f77b4"/>
   </g>
   <g id="patch_5">
    <path d="M 78.835109 307.584 
L 80.836061 307.584 
L 80.836061 283.247997 
L 78.835109 283.247997 
z
" clip-path="url(#p8225237fb9)" style="fill: #1f77b4"/>
   </g>
   <g id="patch_6">
    <path d="M 81.336299 307.584 
L 83.337252 307.584 
L 83.337252 276.383545 
L 81.336299 276.383545 
z
" clip-path="url(#p8225237fb9)" style="fill: #1f77b4"/>
   </g>
   <g id="patch_7">
    <path d="M 83.83749 307.584 
L 85.838442 307.584 
L 85.838442 278.726361 
L 83.83749 278.726361 
z
" clip-path="url(#p8225237fb9)" style="fill: #1f77b4"/>
   </g>
   <g id="patch_8">
    <path d="M 86.33868 307.584 
L 88.339633 307.584 
L 88.339633 230.540489 
L 86.33868 230.540489 
z
" clip-path="url(#p8225237fb9)" style="fill: #1f77b4"/>
   </g>
   <g id="patch_9">
    <path d="M 88.839871 307.584 
L 90.840824 307.584 
L 90.840824 54.144 
L 88.839871 54.144 
z
" clip-path="url(#p8225237fb9)" style="fill: #1f77b4"/>
   </g>
   <g id="patch_10">
    <path d="M 91.341062 307.584 
L 93.342014 307.584 
L 93.342014 258.900279 
L 91.341062 258.900279 
z
" clip-path="url(#p8225237fb9)" style="fill: #1f77b4"/>
   </g>
   <g id="patch_11">
    <path d="M 93.842252 307.584 
L 95.843205 307.584 
L 95.843205 296.736761 
L 93.842252 296.736761 
z
" clip-path="url(#p8225237fb9)" style="fill: #1f77b4"/>
   </g>
   <g id="patch_12">
    <path d="M 96.343443 307.584 
L 98.344396 307.584 
L 98.344396 294.054236 
L 96.343443 294.054236 
z
" clip-path="url(#p8225237fb9)" style="fill: #1f77b4"/>
   </g>
   <g id="patch_13">
    <path d="M 98.844634 307.584 
L 100.845586 307.584 
L 100.845586 224.02746 
L 98.844634 224.02746 
z
" clip-path="url(#p8225237fb9)" style="fill: #1f77b4"/>
   </g>
   <g id="patch_14">
    <path d="M 101.345824 307.584 
L 103.346777 307.584 
L 103.346777 279.558061 
L 101.345824 279.558061 
z
" clip-path="url(#p8225237fb9)" style="fill: #1f77b4"/>
   </g>
   <g id="patch_15">
    <path d="M 103.847015 307.584 
L 105.847968 307.584 
L 105.847968 300.47941 
L 103.847015 300.47941 
z
" clip-path="url(#p8225237fb9)" style="fill: #1f77b4"/>
   </g>
   <g id="patch_16">
    <path d="M 106.348206 307.584 
L 108.349158 307.584 
L 108.349158 279.962197 
L 106.348206 279.962197 
z
" clip-path="url(#p8225237fb9)" style="fill: #1f77b4"/>
   </g>
   <g id="patch_17">
    <path d="M 108.849396 307.584 
L 110.850349 307.584 
L 110.850349 306.149025 
L 108.849396 306.149025 
z
" clip-path="url(#p8225237fb9)" style="fill: #1f77b4"/>
   </g>
   <g id="patch_18">
    <path d="M 111.350587 307.584 
L 113.351539 307.584 
L 113.351539 290.217875 
L 111.350587 290.217875 
z
" clip-path="url(#p8225237fb9)" style="fill: #1f77b4"/>
   </g>
   <g id="patch_19">
    <path d="M 113.851778 307.584 
L 115.85273 307.584 
L 115.85273 250.021006 
L 113.851778 250.021006 
z
" clip-path="url(#p8225237fb9)" style="fill: #1f77b4"/>
   </g>
   <g id="patch_20">
    <path d="M 116.352968 307.584 
L 118.353921 307.584 
L 118.353921 306.518019 
L 116.352968 306.518019 
z
" clip-path="url(#p8225237fb9)" style="fill: #1f77b4"/>
   </g>
   <g id="patch_21">
    <path d="M 118.854159 307.584 
L 120.855111 307.584 
L 120.855111 298.593443 
L 118.854159 298.593443 
z
" clip-path="url(#p8225237fb9)" style="fill: #1f77b4"/>
   </g>
   <g id="patch_22">
    <path d="M 121.355349 307.584 
L 123.356302 307.584 
L 123.356302 255.801905 
L 121.355349 255.801905 
z
" clip-path="url(#p8225237fb9)" style="fill: #1f77b4"/>
   </g>
   <g id="patch_23">
    <path d="M 123.85654 307.584 
L 125.857493 307.584 
L 125.857493 257.172452 
L 123.85654 257.172452 
z
" clip-path="url(#p8225237fb9)" style="fill: #1f77b4"/>
   </g>
   <g id="patch_24">
    <path d="M 126.357731 307.584 
L 128.358683 307.584 
L 128.358683 246.354498 
L 126.357731 246.354498 
z
" clip-path="url(#p8225237fb9)" style="fill: #1f77b4"/>
   </g>
   <g id="patch_25">
    <path d="M 128.858921 307.584 
L 130.859874 307.584 
L 130.859874 294.224091 
L 128.858921 294.224091 
z
" clip-path="url(#p8225237fb9)" style="fill: #1f77b4"/>
   </g>
   <g id="patch_26">
    <path d="M 131.360112 307.584 
L 133.361065 307.584 
L 133.361065 304.017062 
L 131.360112 304.017062 
z
" clip-path="url(#p8225237fb9)" style="fill: #1f77b4"/>
   </g>
   <g id="patch_27">
    <path d="M 133.861303 307.584 
L 135.862255 307.584 
L 135.862255 252.024114 
L 133.861303 252.024114 
z
" clip-path="url(#p8225237fb9)" style="fill: #1f77b4"/>
   </g>
   <g id="patch_28">
    <path d="M 136.362493 307.584 
L 138.363446 307.584 
L 138.363446 268.593681 
L 136.362493 268.593681 
z
" clip-path="url(#p8225237fb9)" style="fill: #1f77b4"/>
   </g>
   <g id="patch_29">
    <path d="M 138.863684 307.584 
L 140.864637 307.584 
L 140.864637 307.279434 
L 138.863684 307.279434 
z
" clip-path="url(#p8225237fb9)" style="fill: #1f77b4"/>
   </g>
   <g id="patch_30">
    <path d="M 141.364875 307.584 
L 143.365827 307.584 
L 143.365827 300.180701 
L 141.364875 300.180701 
z
" clip-path="url(#p8225237fb9)" style="fill: #1f77b4"/>
   </g>
   <g id="patch_31">
    <path d="M 143.866065 307.584 
L 145.867018 307.584 
L 145.867018 132.973908 
L 143.866065 132.973908 
z
" clip-path="url(#p8225237fb9)" style="fill: #1f77b4"/>
   </g>
   <g id="patch_32">
    <path d="M 146.367256 307.584 
L 148.368208 307.584 
L 148.368208 305.217756 
L 146.367256 305.217756 
z
" clip-path="url(#p8225237fb9)" style="fill: #1f77b4"/>
   </g>
   <g id="patch_33">
    <path d="M 148.868447 307.584 
L 150.869399 307.584 
L 150.869399 303.659783 
L 148.868447 303.659783 
z
" clip-path="url(#p8225237fb9)" style="fill: #1f77b4"/>
   </g>
   <g id="patch_34">
    <path d="M 151.369637 307.584 
L 153.37059 307.584 
L 153.37059 298.201021 
L 151.369637 298.201021 
z
" clip-path="url(#p8225237fb9)" style="fill: #1f77b4"/>
   </g>
   <g id="patch_35">
    <path d="M 153.870828 307.584 
L 155.87178 307.584 
L 155.87178 307.584 
L 153.870828 307.584 
z
" clip-path="url(#p8225237fb9)" style="fill: #1f77b4"/>
   </g>
   <g id="patch_36">
    <path d="M 156.372018 307.584 
L 158.372971 307.584 
L 158.372971 286.668508 
L 156.372018 286.668508 
z
" clip-path="url(#p8225237fb9)" style="fill: #1f77b4"/>
   </g>
   <g id="patch_37">
    <path d="M 158.873209 307.584 
L 160.874162 307.584 
L 160.874162 303.642212 
L 158.873209 303.642212 
z
" clip-path="url(#p8225237fb9)" style="fill: #1f77b4"/>
   </g>
   <g id="patch_38">
    <path d="M 161.3744 307.584 
L 163.375352 307.584 
L 163.375352 305.616034 
L 161.3744 305.616034 
z
" clip-path="url(#p8225237fb9)" style="fill: #1f77b4"/>
   </g>
   <g id="patch_39">
    <path d="M 163.87559 307.584 
L 165.876543 307.584 
L 165.876543 275.627987 
L 163.87559 275.627987 
z
" clip-path="url(#p8225237fb9)" style="fill: #1f77b4"/>
   </g>
   <g id="patch_40">
    <path d="M 166.376781 307.584 
L 168.377734 307.584 
L 168.377734 289.485745 
L 166.376781 289.485745 
z
" clip-path="url(#p8225237fb9)" style="fill: #1f77b4"/>
   </g>
   <g id="patch_41">
    <path d="M 168.877972 307.584 
L 170.878924 307.584 
L 170.878924 249.581728 
L 168.877972 249.581728 
z
" clip-path="url(#p8225237fb9)" style="fill: #1f77b4"/>
   </g>
   <g id="patch_42">
    <path d="M 171.379162 307.584 
L 173.380115 307.584 
L 173.380115 307.203292 
L 171.379162 307.203292 
z
" clip-path="url(#p8225237fb9)" style="fill: #1f77b4"/>
   </g>
   <g id="patch_43">
    <path d="M 173.880353 307.584 
L 175.881306 307.584 
L 175.881306 301.639104 
L 173.880353 301.639104 
z
" clip-path="url(#p8225237fb9)" style="fill: #1f77b4"/>
   </g>
   <g id="patch_44">
    <path d="M 176.381544 307.584 
L 178.382496 307.584 
L 178.382496 304.286486 
L 176.381544 304.286486 
z
" clip-path="url(#p8225237fb9)" style="fill: #1f77b4"/>
   </g>
   <g id="patch_45">
    <path d="M 178.882734 307.584 
L 180.883687 307.584 
L 180.883687 276.301547 
L 178.882734 276.301547 
z
" clip-path="url(#p8225237fb9)" style="fill: #1f77b4"/>
   </g>
   <g id="patch_46">
    <path d="M 181.383925 307.584 
L 183.384877 307.584 
L 183.384877 275.87984 
L 181.383925 275.87984 
z
" clip-path="url(#p8225237fb9)" style="fill: #1f77b4"/>
   </g>
   <g id="patch_47">
    <path d="M 183.885116 307.584 
L 185.886068 307.584 
L 185.886068 307.584 
L 183.885116 307.584 
z
" clip-path="url(#p8225237fb9)" style="fill: #1f77b4"/>
   </g>
   <g id="patch_48">
    <path d="M 186.386306 307.584 
L 188.387259 307.584 
L 188.387259 304.97176 
L 186.386306 304.97176 
z
" clip-path="url(#p8225237fb9)" style="fill: #1f77b4"/>
   </g>
   <g id="patch_49">
    <path d="M 188.887497 307.584 
L 190.888449 307.584 
L 190.888449 307.209149 
L 188.887497 307.209149 
z
" clip-path="url(#p8225237fb9)" style="fill: #1f77b4"/>
   </g>
   <g id="patch_50">
    <path d="M 191.388687 307.584 
L 193.38964 307.584 
L 193.38964 301.697674 
L 191.388687 301.697674 
z
" clip-path="url(#p8225237fb9)" style="fill: #1f77b4"/>
   </g>
   <g id="patch_51">
    <path d="M 193.889878 307.584 
L 195.890831 307.584 
L 195.890831 285.432673 
L 193.889878 285.432673 
z
" clip-path="url(#p8225237fb9)" style="fill: #1f77b4"/>
   </g>
   <g id="patch_52">
    <path d="M 196.391069 307.584 
L 198.392021 307.584 
L 198.392021 306.969011 
L 196.391069 306.969011 
z
" clip-path="url(#p8225237fb9)" style="fill: #1f77b4"/>
   </g>
   <g id="patch_53">
    <path d="M 198.892259 307.584 
L 200.893212 307.584 
L 200.893212 272.998176 
L 198.892259 272.998176 
z
" clip-path="url(#p8225237fb9)" style="fill: #1f77b4"/>
   </g>
   <g id="patch_54">
    <path d="M 201.39345 307.584 
L 203.394403 307.584 
L 203.394403 307.48443 
L 201.39345 307.48443 
z
" clip-path="url(#p8225237fb9)" style="fill: #1f77b4"/>
   </g>
   <g id="patch_55">
    <path d="M 203.894641 307.584 
L 205.895593 307.584 
L 205.895593 303.454786 
L 203.894641 303.454786 
z
" clip-path="url(#p8225237fb9)" style="fill: #1f77b4"/>
   </g>
   <g id="patch_56">
    <path d="M 206.395831 307.584 
L 208.396784 307.584 
L 208.396784 281.391315 
L 206.395831 281.391315 
z
" clip-path="url(#p8225237fb9)" style="fill: #1f77b4"/>
   </g>
   <g id="patch_57">
    <path d="M 208.897022 307.584 
L 210.897975 307.584 
L 210.897975 295.026505 
L 208.897022 295.026505 
z
" clip-path="url(#p8225237fb9)" style="fill: #1f77b4"/>
   </g>
   <g id="patch_58">
    <path d="M 211.398213 307.584 
L 213.399165 307.584 
L 213.399165 296.016345 
L 211.398213 296.016345 
z
" clip-path="url(#p8225237fb9)" style="fill: #1f77b4"/>
   </g>
   <g id="patch_59">
    <path d="M 213.899403 307.584 
L 215.900356 307.584 
L 215.900356 300.596551 
L 213.899403 300.596551 
z
" clip-path="url(#p8225237fb9)" style="fill: #1f77b4"/>
   </g>
   <g id="patch_60">
    <path d="M 216.400594 307.584 
L 218.401546 307.584 
L 218.401546 307.584 
L 216.400594 307.584 
z
" clip-path="url(#p8225237fb9)" style="fill: #1f77b4"/>
   </g>
   <g id="patch_61">
    <path d="M 218.901785 307.584 
L 220.902737 307.584 
L 220.902737 306.108026 
L 218.901785 306.108026 
z
" clip-path="url(#p8225237fb9)" style="fill: #1f77b4"/>
   </g>
   <g id="patch_62">
    <path d="M 221.402975 307.584 
L 223.403928 307.584 
L 223.403928 306.95144 
L 221.402975 306.95144 
z
" clip-path="url(#p8225237fb9)" style="fill: #1f77b4"/>
   </g>
   <g id="patch_63">
    <path d="M 223.904166 307.584 
L 225.905118 307.584 
L 225.905118 307.238435 
L 223.904166 307.238435 
z
" clip-path="url(#p8225237fb9)" style="fill: #1f77b4"/>
   </g>
   <g id="patch_64">
    <path d="M 226.405356 307.584 
L 228.406309 307.584 
L 228.406309 307.584 
L 226.405356 307.584 
z
" clip-path="url(#p8225237fb9)" style="fill: #1f77b4"/>
   </g>
   <g id="patch_65">
    <path d="M 228.906547 307.584 
L 230.9075 307.584 
L 230.9075 296.479051 
L 228.906547 296.479051 
z
" clip-path="url(#p8225237fb9)" style="fill: #1f77b4"/>
   </g>
   <g id="patch_66">
    <path d="M 231.407738 307.584 
L 233.40869 307.584 
L 233.40869 305.282183 
L 231.407738 305.282183 
z
" clip-path="url(#p8225237fb9)" style="fill: #1f77b4"/>
   </g>
   <g id="patch_67">
    <path d="M 233.908928 307.584 
L 235.909881 307.584 
L 235.909881 307.584 
L 233.908928 307.584 
z
" clip-path="url(#p8225237fb9)" style="fill: #1f77b4"/>
   </g>
   <g id="patch_68">
    <path d="M 236.410119 307.584 
L 238.411072 307.584 
L 238.411072 304.983474 
L 236.410119 304.983474 
z
" clip-path="url(#p8225237fb9)" style="fill: #1f77b4"/>
   </g>
   <g id="patch_69">
    <path d="M 238.91131 307.584 
L 240.912262 307.584 
L 240.912262 305.838602 
L 238.91131 305.838602 
z
" clip-path="url(#p8225237fb9)" style="fill: #1f77b4"/>
   </g>
   <g id="patch_70">
    <path d="M 241.4125 307.584 
L 243.413453 307.584 
L 243.413453 307.584 
L 241.4125 307.584 
z
" clip-path="url(#p8225237fb9)" style="fill: #1f77b4"/>
   </g>
   <g id="patch_71">
    <path d="M 243.913691 307.584 
L 245.914644 307.584 
L 245.914644 305.159185 
L 243.913691 305.159185 
z
" clip-path="url(#p8225237fb9)" style="fill: #1f77b4"/>
   </g>
   <g id="patch_72">
    <path d="M 246.414882 307.584 
L 248.415834 307.584 
L 248.415834 307.584 
L 246.414882 307.584 
z
" clip-path="url(#p8225237fb9)" style="fill: #1f77b4"/>
   </g>
   <g id="patch_73">
    <path d="M 248.916072 307.584 
L 250.917025 307.584 
L 250.917025 307.584 
L 248.916072 307.584 
z
" clip-path="url(#p8225237fb9)" style="fill: #1f77b4"/>
   </g>
   <g id="patch_74">
    <path d="M 251.417263 307.584 
L 253.418215 307.584 
L 253.418215 307.584 
L 251.417263 307.584 
z
" clip-path="url(#p8225237fb9)" style="fill: #1f77b4"/>
   </g>
   <g id="patch_75">
    <path d="M 253.918454 307.584 
L 255.919406 307.584 
L 255.919406 307.584 
L 253.918454 307.584 
z
" clip-path="url(#p8225237fb9)" style="fill: #1f77b4"/>
   </g>
   <g id="patch_76">
    <path d="M 256.419644 307.584 
L 258.420597 307.584 
L 258.420597 307.584 
L 256.419644 307.584 
z
" clip-path="url(#p8225237fb9)" style="fill: #1f77b4"/>
   </g>
   <g id="patch_77">
    <path d="M 258.920835 307.584 
L 260.921787 307.584 
L 260.921787 307.584 
L 258.920835 307.584 
z
" clip-path="url(#p8225237fb9)" style="fill: #1f77b4"/>
   </g>
   <g id="patch_78">
    <path d="M 261.422025 307.584 
L 263.422978 307.584 
L 263.422978 306.254452 
L 261.422025 306.254452 
z
" clip-path="url(#p8225237fb9)" style="fill: #1f77b4"/>
   </g>
   <g id="patch_79">
    <path d="M 263.923216 307.584 
L 265.924169 307.584 
L 265.924169 307.584 
L 263.923216 307.584 
z
" clip-path="url(#p8225237fb9)" style="fill: #1f77b4"/>
   </g>
   <g id="patch_80">
    <path d="M 266.424407 307.584 
L 268.425359 307.584 
L 268.425359 307.584 
L 266.424407 307.584 
z
" clip-path="url(#p8225237fb9)" style="fill: #1f77b4"/>
   </g>
   <g id="patch_81">
    <path d="M 268.925597 307.584 
L 270.92655 307.584 
L 270.92655 307.584 
L 268.925597 307.584 
z
" clip-path="url(#p8225237fb9)" style="fill: #1f77b4"/>
   </g>
   <g id="patch_82">
    <path d="M 271.426788 307.584 
L 273.427741 307.584 
L 273.427741 303.115078 
L 271.426788 303.115078 
z
" clip-path="url(#p8225237fb9)" style="fill: #1f77b4"/>
   </g>
   <g id="patch_83">
    <path d="M 273.927979 307.584 
L 275.928931 307.584 
L 275.928931 307.06858 
L 273.927979 307.06858 
z
" clip-path="url(#p8225237fb9)" style="fill: #1f77b4"/>
   </g>
   <g id="patch_84">
    <path d="M 276.429169 307.584 
L 278.430122 307.584 
L 278.430122 307.156436 
L 276.429169 307.156436 
z
" clip-path="url(#p8225237fb9)" style="fill: #1f77b4"/>
   </g>
   <g id="patch_85">
    <path d="M 278.93036 307.584 
L 280.931313 307.584 
L 280.931313 307.584 
L 278.93036 307.584 
z
" clip-path="url(#p8225237fb9)" style="fill: #1f77b4"/>
   </g>
   <g id="patch_86">
    <path d="M 281.431551 307.584 
L 283.432503 307.584 
L 283.432503 307.584 
L 281.431551 307.584 
z
" clip-path="url(#p8225237fb9)" style="fill: #1f77b4"/>
   </g>
   <g id="patch_87">
    <path d="M 283.932741 307.584 
L 285.933694 307.584 
L 285.933694 307.584 
L 283.932741 307.584 
z
" clip-path="url(#p8225237fb9)" style="fill: #1f77b4"/>
   </g>
   <g id="patch_88">
    <path d="M 286.433932 307.584 
L 288.434884 307.584 
L 288.434884 304.848762 
L 286.433932 304.848762 
z
" clip-path="url(#p8225237fb9)" style="fill: #1f77b4"/>
   </g>
   <g id="patch_89">
    <path d="M 288.935123 307.584 
L 290.936075 307.584 
L 290.936075 290.258874 
L 288.935123 290.258874 
z
" clip-path="url(#p8225237fb9)" style="fill: #1f77b4"/>
   </g>
   <g id="patch_90">
    <path d="M 291.436313 307.584 
L 293.437266 307.584 
L 293.437266 307.584 
L 291.436313 307.584 
z
" clip-path="url(#p8225237fb9)" style="fill: #1f77b4"/>
   </g>
   <g id="patch_91">
    <path d="M 293.937504 307.584 
L 295.938456 307.584 
L 295.938456 292.349838 
L 293.937504 292.349838 
z
" clip-path="url(#p8225237fb9)" style="fill: #1f77b4"/>
   </g>
   <g id="patch_92">
    <path d="M 296.438694 307.584 
L 298.439647 307.584 
L 298.439647 307.584 
L 296.438694 307.584 
z
" clip-path="url(#p8225237fb9)" style="fill: #1f77b4"/>
   </g>
   <g id="patch_93">
    <path d="M 298.939885 307.584 
L 300.940838 307.584 
L 300.940838 307.584 
L 298.939885 307.584 
z
" clip-path="url(#p8225237fb9)" style="fill: #1f77b4"/>
   </g>
   <g id="patch_94">
    <path d="M 301.441076 307.584 
L 303.442028 307.584 
L 303.442028 294.229948 
L 301.441076 294.229948 
z
" clip-path="url(#p8225237fb9)" style="fill: #1f77b4"/>
   </g>
   <g id="patch_95">
    <path d="M 303.942266 307.584 
L 305.943219 307.584 
L 305.943219 300.883546 
L 303.942266 300.883546 
z
" clip-path="url(#p8225237fb9)" style="fill: #1f77b4"/>
   </g>
   <g id="patch_96">
    <path d="M 306.443457 307.584 
L 308.44441 307.584 
L 308.44441 296.789474 
L 306.443457 296.789474 
z
" clip-path="url(#p8225237fb9)" style="fill: #1f77b4"/>
   </g>
   <g id="patch_97">
    <path d="M 308.944648 307.584 
L 310.9456 307.584 
L 310.9456 307.584 
L 308.944648 307.584 
z
" clip-path="url(#p8225237fb9)" style="fill: #1f77b4"/>
   </g>
   <g id="patch_98">
    <path d="M 311.445838 307.584 
L 313.446791 307.584 
L 313.446791 307.502001 
L 311.445838 307.502001 
z
" clip-path="url(#p8225237fb9)" style="fill: #1f77b4"/>
   </g>
   <g id="patch_99">
    <path d="M 313.947029 307.584 
L 315.947982 307.584 
L 315.947982 307.584 
L 313.947029 307.584 
z
" clip-path="url(#p8225237fb9)" style="fill: #1f77b4"/>
   </g>
   <g id="patch_100">
    <path d="M 316.44822 307.584 
L 318.449172 307.584 
L 318.449172 307.584 
L 316.44822 307.584 
z
" clip-path="url(#p8225237fb9)" style="fill: #1f77b4"/>
   </g>
   <g id="patch_101">
    <path d="M 318.94941 307.584 
L 320.950363 307.584 
L 320.950363 307.584 
L 318.94941 307.584 
z
" clip-path="url(#p8225237fb9)" style="fill: #1f77b4"/>
   </g>
   <g id="patch_102">
    <path d="M 321.450601 307.584 
L 323.451553 307.584 
L 323.451553 300.766405 
L 321.450601 300.766405 
z
" clip-path="url(#p8225237fb9)" style="fill: #1f77b4"/>
   </g>
   <g id="patch_103">
    <path d="M 323.951792 307.584 
L 325.952744 307.584 
L 325.952744 307.420003 
L 323.951792 307.420003 
z
" clip-path="url(#p8225237fb9)" style="fill: #1f77b4"/>
   </g>
   <g id="patch_104">
    <path d="M 326.452982 307.584 
L 328.453935 307.584 
L 328.453935 299.512998 
L 326.452982 299.512998 
z
" clip-path="url(#p8225237fb9)" style="fill: #1f77b4"/>
   </g>
   <g id="patch_105">
    <path d="M 328.954173 307.584 
L 330.955125 307.584 
L 330.955125 298.886295 
L 328.954173 298.886295 
z
" clip-path="url(#p8225237fb9)" style="fill: #1f77b4"/>
   </g>
   <g id="patch_106">
    <path d="M 331.455363 307.584 
L 333.456316 307.584 
L 333.456316 299.782422 
L 331.455363 299.782422 
z
" clip-path="url(#p8225237fb9)" style="fill: #1f77b4"/>
   </g>
   <g id="patch_107">
    <path d="M 333.956554 307.584 
L 335.957507 307.584 
L 335.957507 292.44355 
L 333.956554 292.44355 
z
" clip-path="url(#p8225237fb9)" style="fill: #1f77b4"/>
   </g>
   <g id="patch_108">
    <path d="M 336.457745 307.584 
L 338.458697 307.584 
L 338.458697 307.092009 
L 336.457745 307.092009 
z
" clip-path="url(#p8225237fb9)" style="fill: #1f77b4"/>
   </g>
   <g id="patch_109">
    <path d="M 338.958935 307.584 
L 340.959888 307.584 
L 340.959888 307.584 
L 338.958935 307.584 
z
" clip-path="url(#p8225237fb9)" style="fill: #1f77b4"/>
   </g>
   <g id="patch_110">
    <path d="M 341.460126 307.584 
L 343.461079 307.584 
L 343.461079 304.632052 
L 341.460126 304.632052 
z
" clip-path="url(#p8225237fb9)" style="fill: #1f77b4"/>
   </g>
   <g id="patch_111">
    <path d="M 343.961317 307.584 
L 345.962269 307.584 
L 345.962269 290.340873 
L 343.961317 290.340873 
z
" clip-path="url(#p8225237fb9)" style="fill: #1f77b4"/>
   </g>
   <g id="patch_112">
    <path d="M 346.462507 307.584 
L 348.46346 307.584 
L 348.46346 307.584 
L 346.462507 307.584 
z
" clip-path="url(#p8225237fb9)" style="fill: #1f77b4"/>
   </g>
   <g id="patch_113">
    <path d="M 348.963698 307.584 
L 350.964651 307.584 
L 350.964651 307.584 
L 348.963698 307.584 
z
" clip-path="url(#p8225237fb9)" style="fill: #1f77b4"/>
   </g>
   <g id="patch_114">
    <path d="M 351.464889 307.584 
L 353.465841 307.584 
L 353.465841 295.061647 
L 351.464889 295.061647 
z
" clip-path="url(#p8225237fb9)" style="fill: #1f77b4"/>
   </g>
   <g id="patch_115">
    <path d="M 353.966079 307.584 
L 355.967032 307.584 
L 355.967032 307.584 
L 353.966079 307.584 
z
" clip-path="url(#p8225237fb9)" style="fill: #1f77b4"/>
   </g>
   <g id="patch_116">
    <path d="M 356.46727 307.584 
L 358.468222 307.584 
L 358.468222 301.029972 
L 356.46727 301.029972 
z
" clip-path="url(#p8225237fb9)" style="fill: #1f77b4"/>
   </g>
   <g id="patch_117">
    <path d="M 358.968461 307.584 
L 360.969413 307.584 
L 360.969413 307.584 
L 358.968461 307.584 
z
" clip-path="url(#p8225237fb9)" style="fill: #1f77b4"/>
   </g>
   <g id="patch_118">
    <path d="M 361.469651 307.584 
L 363.470604 307.584 
L 363.470604 307.256006 
L 361.469651 307.256006 
z
" clip-path="url(#p8225237fb9)" style="fill: #1f77b4"/>
   </g>
   <g id="patch_119">
    <path d="M 363.970842 307.584 
L 365.971794 307.584 
L 365.971794 304.790192 
L 363.970842 304.790192 
z
" clip-path="url(#p8225237fb9)" style="fill: #1f77b4"/>
   </g>
   <g id="patch_120">
    <path d="M 366.472032 307.584 
L 368.472985 307.584 
L 368.472985 303.940921 
L 366.472032 303.940921 
z
" clip-path="url(#p8225237fb9)" style="fill: #1f77b4"/>
   </g>
   <g id="patch_121">
    <path d="M 368.973223 307.584 
L 370.974176 307.584 
L 370.974176 296.455623 
L 368.973223 296.455623 
z
" clip-path="url(#p8225237fb9)" style="fill: #1f77b4"/>
   </g>
   <g id="patch_122">
    <path d="M 371.474414 307.584 
L 373.475366 307.584 
L 373.475366 307.584 
L 371.474414 307.584 
z
" clip-path="url(#p8225237fb9)" style="fill: #1f77b4"/>
   </g>
   <g id="patch_123">
    <path d="M 373.975604 307.584 
L 375.976557 307.584 
L 375.976557 304.567624 
L 373.975604 304.567624 
z
" clip-path="url(#p8225237fb9)" style="fill: #1f77b4"/>
   </g>
   <g id="patch_124">
    <path d="M 376.476795 307.584 
L 378.477748 307.584 
L 378.477748 307.584 
L 376.476795 307.584 
z
" clip-path="url(#p8225237fb9)" style="fill: #1f77b4"/>
   </g>
   <g id="patch_125">
    <path d="M 378.977986 307.584 
L 380.978938 307.584 
L 380.978938 307.584 
L 378.977986 307.584 
z
" clip-path="url(#p8225237fb9)" style="fill: #1f77b4"/>
   </g>
   <g id="patch_126">
    <path d="M 381.479176 307.584 
L 383.480129 307.584 
L 383.480129 307.584 
L 381.479176 307.584 
z
" clip-path="url(#p8225237fb9)" style="fill: #1f77b4"/>
   </g>
   <g id="patch_127">
    <path d="M 383.980367 307.584 
L 385.98132 307.584 
L 385.98132 307.584 
L 383.980367 307.584 
z
" clip-path="url(#p8225237fb9)" style="fill: #1f77b4"/>
   </g>
   <g id="patch_128">
    <path d="M 386.481558 307.584 
L 388.48251 307.584 
L 388.48251 306.740586 
L 386.481558 306.740586 
z
" clip-path="url(#p8225237fb9)" style="fill: #1f77b4"/>
   </g>
   <g id="patch_129">
    <path d="M 388.982748 307.584 
L 390.983701 307.584 
L 390.983701 307.584 
L 388.982748 307.584 
z
" clip-path="url(#p8225237fb9)" style="fill: #1f77b4"/>
   </g>
   <g id="patch_130">
    <path d="M 391.483939 307.584 
L 393.484891 307.584 
L 393.484891 306.143168 
L 391.483939 306.143168 
z
" clip-path="url(#p8225237fb9)" style="fill: #1f77b4"/>
   </g>
   <g id="patch_131">
    <path d="M 393.98513 307.584 
L 395.986082 307.584 
L 395.986082 307.584 
L 393.98513 307.584 
z
" clip-path="url(#p8225237fb9)" style="fill: #1f77b4"/>
   </g>
   <g id="patch_132">
    <path d="M 396.48632 307.584 
L 398.487273 307.584 
L 398.487273 306.799157 
L 396.48632 306.799157 
z
" clip-path="url(#p8225237fb9)" style="fill: #1f77b4"/>
   </g>
   <g id="matplotlib.axis_1">
    <g id="xtick_1">
     <g id="line2d_1">
      <defs>
       <path id="m54ebe47e4d" d="M 0 0 
L 0 3.5 
" style="stroke: #000000; stroke-width: 0.8"/>
      </defs>
      <g>
       <use xlink:href="#m54ebe47e4d" x="72.332013" y="307.584" style="stroke: #000000; stroke-width: 0.8"/>
      </g>
     </g>
     <g id="text_1">
      <!-- 0 -->
      <g transform="translate(69.150763 322.182437) scale(0.1 -0.1)">
       <defs>
        <path id="DejaVuSans-30" d="M 2034 4250 
Q 1547 4250 1301 3770 
Q 1056 3291 1056 2328 
Q 1056 1369 1301 889 
Q 1547 409 2034 409 
Q 2525 409 2770 889 
Q 3016 1369 3016 2328 
Q 3016 3291 2770 3770 
Q 2525 4250 2034 4250 
z
M 2034 4750 
Q 2819 4750 3233 4129 
Q 3647 3509 3647 2328 
Q 3647 1150 3233 529 
Q 2819 -91 2034 -91 
Q 1250 -91 836 529 
Q 422 1150 422 2328 
Q 422 3509 836 4129 
Q 1250 4750 2034 4750 
z
" transform="scale(0.015625)"/>
       </defs>
       <use xlink:href="#DejaVuSans-30"/>
      </g>
     </g>
    </g>
    <g id="xtick_2">
     <g id="line2d_2">
      <g>
       <use xlink:href="#m54ebe47e4d" x="122.355826" y="307.584" style="stroke: #000000; stroke-width: 0.8"/>
      </g>
     </g>
     <g id="text_2">
      <!-- 20 -->
      <g transform="translate(115.993326 322.182437) scale(0.1 -0.1)">
       <defs>
        <path id="DejaVuSans-32" d="M 1228 531 
L 3431 531 
L 3431 0 
L 469 0 
L 469 531 
Q 828 903 1448 1529 
Q 2069 2156 2228 2338 
Q 2531 2678 2651 2914 
Q 2772 3150 2772 3378 
Q 2772 3750 2511 3984 
Q 2250 4219 1831 4219 
Q 1534 4219 1204 4116 
Q 875 4013 500 3803 
L 500 4441 
Q 881 4594 1212 4672 
Q 1544 4750 1819 4750 
Q 2544 4750 2975 4387 
Q 3406 4025 3406 3419 
Q 3406 3131 3298 2873 
Q 3191 2616 2906 2266 
Q 2828 2175 2409 1742 
Q 1991 1309 1228 531 
z
" transform="scale(0.015625)"/>
       </defs>
       <use xlink:href="#DejaVuSans-32"/>
       <use xlink:href="#DejaVuSans-30" x="63.623047"/>
      </g>
     </g>
    </g>
    <g id="xtick_3">
     <g id="line2d_3">
      <g>
       <use xlink:href="#m54ebe47e4d" x="172.379639" y="307.584" style="stroke: #000000; stroke-width: 0.8"/>
      </g>
     </g>
     <g id="text_3">
      <!-- 40 -->
      <g transform="translate(166.017139 322.182437) scale(0.1 -0.1)">
       <defs>
        <path id="DejaVuSans-34" d="M 2419 4116 
L 825 1625 
L 2419 1625 
L 2419 4116 
z
M 2253 4666 
L 3047 4666 
L 3047 1625 
L 3713 1625 
L 3713 1100 
L 3047 1100 
L 3047 0 
L 2419 0 
L 2419 1100 
L 313 1100 
L 313 1709 
L 2253 4666 
z
" transform="scale(0.015625)"/>
       </defs>
       <use xlink:href="#DejaVuSans-34"/>
       <use xlink:href="#DejaVuSans-30" x="63.623047"/>
      </g>
     </g>
    </g>
    <g id="xtick_4">
     <g id="line2d_4">
      <g>
       <use xlink:href="#m54ebe47e4d" x="222.403451" y="307.584" style="stroke: #000000; stroke-width: 0.8"/>
      </g>
     </g>
     <g id="text_4">
      <!-- 60 -->
      <g transform="translate(216.040951 322.182437) scale(0.1 -0.1)">
       <defs>
        <path id="DejaVuSans-36" d="M 2113 2584 
Q 1688 2584 1439 2293 
Q 1191 2003 1191 1497 
Q 1191 994 1439 701 
Q 1688 409 2113 409 
Q 2538 409 2786 701 
Q 3034 994 3034 1497 
Q 3034 2003 2786 2293 
Q 2538 2584 2113 2584 
z
M 3366 4563 
L 3366 3988 
Q 3128 4100 2886 4159 
Q 2644 4219 2406 4219 
Q 1781 4219 1451 3797 
Q 1122 3375 1075 2522 
Q 1259 2794 1537 2939 
Q 1816 3084 2150 3084 
Q 2853 3084 3261 2657 
Q 3669 2231 3669 1497 
Q 3669 778 3244 343 
Q 2819 -91 2113 -91 
Q 1303 -91 875 529 
Q 447 1150 447 2328 
Q 447 3434 972 4092 
Q 1497 4750 2381 4750 
Q 2619 4750 2861 4703 
Q 3103 4656 3366 4563 
z
" transform="scale(0.015625)"/>
       </defs>
       <use xlink:href="#DejaVuSans-36"/>
       <use xlink:href="#DejaVuSans-30" x="63.623047"/>
      </g>
     </g>
    </g>
    <g id="xtick_5">
     <g id="line2d_5">
      <g>
       <use xlink:href="#m54ebe47e4d" x="272.427264" y="307.584" style="stroke: #000000; stroke-width: 0.8"/>
      </g>
     </g>
     <g id="text_5">
      <!-- 80 -->
      <g transform="translate(266.064764 322.182437) scale(0.1 -0.1)">
       <defs>
        <path id="DejaVuSans-38" d="M 2034 2216 
Q 1584 2216 1326 1975 
Q 1069 1734 1069 1313 
Q 1069 891 1326 650 
Q 1584 409 2034 409 
Q 2484 409 2743 651 
Q 3003 894 3003 1313 
Q 3003 1734 2745 1975 
Q 2488 2216 2034 2216 
z
M 1403 2484 
Q 997 2584 770 2862 
Q 544 3141 544 3541 
Q 544 4100 942 4425 
Q 1341 4750 2034 4750 
Q 2731 4750 3128 4425 
Q 3525 4100 3525 3541 
Q 3525 3141 3298 2862 
Q 3072 2584 2669 2484 
Q 3125 2378 3379 2068 
Q 3634 1759 3634 1313 
Q 3634 634 3220 271 
Q 2806 -91 2034 -91 
Q 1263 -91 848 271 
Q 434 634 434 1313 
Q 434 1759 690 2068 
Q 947 2378 1403 2484 
z
M 1172 3481 
Q 1172 3119 1398 2916 
Q 1625 2713 2034 2713 
Q 2441 2713 2670 2916 
Q 2900 3119 2900 3481 
Q 2900 3844 2670 4047 
Q 2441 4250 2034 4250 
Q 1625 4250 1398 4047 
Q 1172 3844 1172 3481 
z
" transform="scale(0.015625)"/>
       </defs>
       <use xlink:href="#DejaVuSans-38"/>
       <use xlink:href="#DejaVuSans-30" x="63.623047"/>
      </g>
     </g>
    </g>
    <g id="xtick_6">
     <g id="line2d_6">
      <g>
       <use xlink:href="#m54ebe47e4d" x="322.451077" y="307.584" style="stroke: #000000; stroke-width: 0.8"/>
      </g>
     </g>
     <g id="text_6">
      <!-- 100 -->
      <g transform="translate(312.907327 322.182437) scale(0.1 -0.1)">
       <defs>
        <path id="DejaVuSans-31" d="M 794 531 
L 1825 531 
L 1825 4091 
L 703 3866 
L 703 4441 
L 1819 4666 
L 2450 4666 
L 2450 531 
L 3481 531 
L 3481 0 
L 794 0 
L 794 531 
z
" transform="scale(0.015625)"/>
       </defs>
       <use xlink:href="#DejaVuSans-31"/>
       <use xlink:href="#DejaVuSans-30" x="63.623047"/>
       <use xlink:href="#DejaVuSans-30" x="127.246094"/>
      </g>
     </g>
    </g>
    <g id="xtick_7">
     <g id="line2d_7">
      <g>
       <use xlink:href="#m54ebe47e4d" x="372.47489" y="307.584" style="stroke: #000000; stroke-width: 0.8"/>
      </g>
     </g>
     <g id="text_7">
      <!-- 120 -->
      <g transform="translate(362.93114 322.182437) scale(0.1 -0.1)">
       <use xlink:href="#DejaVuSans-31"/>
       <use xlink:href="#DejaVuSans-32" x="63.623047"/>
       <use xlink:href="#DejaVuSans-30" x="127.246094"/>
      </g>
     </g>
    </g>
   </g>
   <g id="matplotlib.axis_2">
    <g id="ytick_1">
     <g id="line2d_8">
      <defs>
       <path id="m465f8b07c7" d="M 0 0 
L -3.5 0 
" style="stroke: #000000; stroke-width: 0.8"/>
      </defs>
      <g>
       <use xlink:href="#m465f8b07c7" x="57.6" y="307.584" style="stroke: #000000; stroke-width: 0.8"/>
      </g>
     </g>
     <g id="text_8">
      <!-- 0 -->
      <g transform="translate(44.2375 311.383219) scale(0.1 -0.1)">
       <use xlink:href="#DejaVuSans-30"/>
      </g>
     </g>
    </g>
    <g id="ytick_2">
     <g id="line2d_9">
      <g>
       <use xlink:href="#m465f8b07c7" x="57.6" y="249.013595" style="stroke: #000000; stroke-width: 0.8"/>
      </g>
     </g>
     <g id="text_9">
      <!-- 10000 -->
      <g transform="translate(18.7875 252.812814) scale(0.1 -0.1)">
       <use xlink:href="#DejaVuSans-31"/>
       <use xlink:href="#DejaVuSans-30" x="63.623047"/>
       <use xlink:href="#DejaVuSans-30" x="127.246094"/>
       <use xlink:href="#DejaVuSans-30" x="190.869141"/>
       <use xlink:href="#DejaVuSans-30" x="254.492188"/>
      </g>
     </g>
    </g>
    <g id="ytick_3">
     <g id="line2d_10">
      <g>
       <use xlink:href="#m465f8b07c7" x="57.6" y="190.44319" style="stroke: #000000; stroke-width: 0.8"/>
      </g>
     </g>
     <g id="text_10">
      <!-- 20000 -->
      <g transform="translate(18.7875 194.242409) scale(0.1 -0.1)">
       <use xlink:href="#DejaVuSans-32"/>
       <use xlink:href="#DejaVuSans-30" x="63.623047"/>
       <use xlink:href="#DejaVuSans-30" x="127.246094"/>
       <use xlink:href="#DejaVuSans-30" x="190.869141"/>
       <use xlink:href="#DejaVuSans-30" x="254.492188"/>
      </g>
     </g>
    </g>
    <g id="ytick_4">
     <g id="line2d_11">
      <g>
       <use xlink:href="#m465f8b07c7" x="57.6" y="131.872785" style="stroke: #000000; stroke-width: 0.8"/>
      </g>
     </g>
     <g id="text_11">
      <!-- 30000 -->
      <g transform="translate(18.7875 135.672003) scale(0.1 -0.1)">
       <defs>
        <path id="DejaVuSans-33" d="M 2597 2516 
Q 3050 2419 3304 2112 
Q 3559 1806 3559 1356 
Q 3559 666 3084 287 
Q 2609 -91 1734 -91 
Q 1441 -91 1130 -33 
Q 819 25 488 141 
L 488 750 
Q 750 597 1062 519 
Q 1375 441 1716 441 
Q 2309 441 2620 675 
Q 2931 909 2931 1356 
Q 2931 1769 2642 2001 
Q 2353 2234 1838 2234 
L 1294 2234 
L 1294 2753 
L 1863 2753 
Q 2328 2753 2575 2939 
Q 2822 3125 2822 3475 
Q 2822 3834 2567 4026 
Q 2313 4219 1838 4219 
Q 1578 4219 1281 4162 
Q 984 4106 628 3988 
L 628 4550 
Q 988 4650 1302 4700 
Q 1616 4750 1894 4750 
Q 2613 4750 3031 4423 
Q 3450 4097 3450 3541 
Q 3450 3153 3228 2886 
Q 3006 2619 2597 2516 
z
" transform="scale(0.015625)"/>
       </defs>
       <use xlink:href="#DejaVuSans-33"/>
       <use xlink:href="#DejaVuSans-30" x="63.623047"/>
       <use xlink:href="#DejaVuSans-30" x="127.246094"/>
       <use xlink:href="#DejaVuSans-30" x="190.869141"/>
       <use xlink:href="#DejaVuSans-30" x="254.492188"/>
      </g>
     </g>
    </g>
    <g id="ytick_5">
     <g id="line2d_12">
      <g>
       <use xlink:href="#m465f8b07c7" x="57.6" y="73.30238" style="stroke: #000000; stroke-width: 0.8"/>
      </g>
     </g>
     <g id="text_12">
      <!-- 40000 -->
      <g transform="translate(18.7875 77.101598) scale(0.1 -0.1)">
       <use xlink:href="#DejaVuSans-34"/>
       <use xlink:href="#DejaVuSans-30" x="63.623047"/>
       <use xlink:href="#DejaVuSans-30" x="127.246094"/>
       <use xlink:href="#DejaVuSans-30" x="190.869141"/>
       <use xlink:href="#DejaVuSans-30" x="254.492188"/>
      </g>
     </g>
    </g>
   </g>
   <g id="patch_133">
    <path d="M 57.6 307.584 
L 57.6 41.472 
" style="fill: none; stroke: #000000; stroke-width: 0.8; stroke-linejoin: miter; stroke-linecap: square"/>
   </g>
   <g id="patch_134">
    <path d="M 414.72 307.584 
L 414.72 41.472 
" style="fill: none; stroke: #000000; stroke-width: 0.8; stroke-linejoin: miter; stroke-linecap: square"/>
   </g>
   <g id="patch_135">
    <path d="M 57.6 307.584 
L 414.72 307.584 
" style="fill: none; stroke: #000000; stroke-width: 0.8; stroke-linejoin: miter; stroke-linecap: square"/>
   </g>
   <g id="patch_136">
    <path d="M 57.6 41.472 
L 414.72 41.472 
" style="fill: none; stroke: #000000; stroke-width: 0.8; stroke-linejoin: miter; stroke-linecap: square"/>
   </g>
  </g>
 </g>
 <defs>
  <clipPath id="p8225237fb9">
   <rect x="57.6" y="41.472" width="357.12" height="266.112"/>
  </clipPath>
 </defs>
</svg>
