<?xml version="1.0" encoding="utf-8" standalone="no"?>
<!DOCTYPE svg PUBLIC "-//W3C//DTD SVG 1.1//EN"
  "http://www.w3.org/Graphics/SVG/1.1/DTD/svg11.dtd">
<svg xmlns:xlink="http://www.w3.org/1999/xlink" width="460.8pt" height="345.6pt" viewBox="0 0 460.8 345.6" xmlns="http://www.w3.org/2000/svg" version="1.1">
 <metadata>
  <rdf:RDF xmlns:dc="http://purl.org/dc/elements/1.1/" xmlns:cc="http://creativecommons.org/ns#" xmlns:rdf="http://www.w3.org/1999/02/22-rdf-syntax-ns#">
   <cc:Work>
    <dc:type rdf:resource="http://purl.org/dc/dcmitype/StillImage"/>
    <dc:date>2023-03-27T15:36:58.264460</dc:date>
    <dc:format>image/svg+xml</dc:format>
    <dc:creator>
     <cc:Agent>
      <dc:title>Matplotlib v3.7.1, https://matplotlib.org/</dc:title>
     </cc:Agent>
    </dc:creator>
   </cc:Work>
  </rdf:RDF>
 </metadata>
 <defs>
  <style type="text/css">*{stroke-linejoin: round; stroke-linecap: butt}</style>
 </defs>
 <g id="figure_1">
  <g id="patch_1">
   <path d="M 0 345.6 
L 460.8 345.6 
L 460.8 0 
L 0 0 
z
" style="fill: #ffffff"/>
  </g>
  <g id="axes_1">
   <g id="patch_2">
    <path d="M 57.6 307.584 
L 414.72 307.584 
L 414.72 41.472 
L 57.6 41.472 
z
" style="fill: #ffffff"/>
   </g>
   <g id="patch_3">
    <path d="M 73.832727 307.584 
L 75.83368 307.584 
L 75.83368 276.296596 
L 73.832727 276.296596 
z
" clip-path="url(#p95595985f0)" style="fill: #1f77b4"/>
   </g>
   <g id="patch_4">
    <path d="M 76.333918 307.584 
L 78.33487 307.584 
L 78.33487 227.006572 
L 76.333918 227.006572 
z
" clip-path="url(#p95595985f0)" style="fill: #1f77b4"/>
   </g>
   <g id="patch_5">
    <path d="M 78.835109 307.584 
L 80.836061 307.584 
L 80.836061 264.375039 
L 78.835109 264.375039 
z
" clip-path="url(#p95595985f0)" style="fill: #1f77b4"/>
   </g>
   <g id="patch_6">
    <path d="M 81.336299 307.584 
L 83.337252 307.584 
L 83.337252 283.674062 
L 81.336299 283.674062 
z
" clip-path="url(#p95595985f0)" style="fill: #1f77b4"/>
   </g>
   <g id="patch_7">
    <path d="M 83.83749 307.584 
L 85.838442 307.584 
L 85.838442 54.144 
L 83.83749 54.144 
z
" clip-path="url(#p95595985f0)" style="fill: #1f77b4"/>
   </g>
   <g id="patch_8">
    <path d="M 86.33868 307.584 
L 88.339633 307.584 
L 88.339633 289.728395 
L 86.33868 289.728395 
z
" clip-path="url(#p95595985f0)" style="fill: #1f77b4"/>
   </g>
   <g id="patch_9">
    <path d="M 88.839871 307.584 
L 90.840824 307.584 
L 90.840824 283.086003 
L 88.839871 283.086003 
z
" clip-path="url(#p95595985f0)" style="fill: #1f77b4"/>
   </g>
   <g id="patch_10">
    <path d="M 91.341062 307.584 
L 93.342014 307.584 
L 93.342014 292.281105 
L 91.341062 292.281105 
z
" clip-path="url(#p95595985f0)" style="fill: #1f77b4"/>
   </g>
   <g id="patch_11">
    <path d="M 93.842252 307.584 
L 95.843205 307.584 
L 95.843205 197.790739 
L 93.842252 197.790739 
z
" clip-path="url(#p95595985f0)" style="fill: #1f77b4"/>
   </g>
   <g id="patch_12">
    <path d="M 96.343443 307.584 
L 98.344396 307.584 
L 98.344396 298.696292 
L 96.343443 298.696292 
z
" clip-path="url(#p95595985f0)" style="fill: #1f77b4"/>
   </g>
   <g id="patch_13">
    <path d="M 98.844634 307.584 
L 100.845586 307.584 
L 100.845586 235.94774 
L 98.844634 235.94774 
z
" clip-path="url(#p95595985f0)" style="fill: #1f77b4"/>
   </g>
   <g id="patch_14">
    <path d="M 101.345824 307.584 
L 103.346777 307.584 
L 103.346777 293.457223 
L 101.345824 293.457223 
z
" clip-path="url(#p95595985f0)" style="fill: #1f77b4"/>
   </g>
   <g id="patch_15">
    <path d="M 103.847015 307.584 
L 105.847968 307.584 
L 105.847968 270.282358 
L 103.847015 270.282358 
z
" clip-path="url(#p95595985f0)" style="fill: #1f77b4"/>
   </g>
   <g id="patch_16">
    <path d="M 106.348206 307.584 
L 108.349158 307.584 
L 108.349158 292.10736 
L 106.348206 292.10736 
z
" clip-path="url(#p95595985f0)" style="fill: #1f77b4"/>
   </g>
   <g id="patch_17">
    <path d="M 108.849396 307.584 
L 110.850349 307.584 
L 110.850349 287.830569 
L 108.849396 287.830569 
z
" clip-path="url(#p95595985f0)" style="fill: #1f77b4"/>
   </g>
   <g id="patch_18">
    <path d="M 111.350587 307.584 
L 113.351539 307.584 
L 113.351539 293.858172 
L 111.350587 293.858172 
z
" clip-path="url(#p95595985f0)" style="fill: #1f77b4"/>
   </g>
   <g id="patch_19">
    <path d="M 113.851778 307.584 
L 115.85273 307.584 
L 115.85273 272.928623 
L 113.851778 272.928623 
z
" clip-path="url(#p95595985f0)" style="fill: #1f77b4"/>
   </g>
   <g id="patch_20">
    <path d="M 116.352968 307.584 
L 118.353921 307.584 
L 118.353921 293.149828 
L 116.352968 293.149828 
z
" clip-path="url(#p95595985f0)" style="fill: #1f77b4"/>
   </g>
   <g id="patch_21">
    <path d="M 118.854159 307.584 
L 120.855111 307.584 
L 120.855111 300.981703 
L 118.854159 300.981703 
z
" clip-path="url(#p95595985f0)" style="fill: #1f77b4"/>
   </g>
   <g id="patch_22">
    <path d="M 121.355349 307.584 
L 123.356302 307.584 
L 123.356302 304.403136 
L 121.355349 304.403136 
z
" clip-path="url(#p95595985f0)" style="fill: #1f77b4"/>
   </g>
   <g id="patch_23">
    <path d="M 123.85654 307.584 
L 125.857493 307.584 
L 125.857493 301.489572 
L 123.85654 301.489572 
z
" clip-path="url(#p95595985f0)" style="fill: #1f77b4"/>
   </g>
   <g id="patch_24">
    <path d="M 126.357731 307.584 
L 128.358683 307.584 
L 128.358683 282.177185 
L 126.357731 282.177185 
z
" clip-path="url(#p95595985f0)" style="fill: #1f77b4"/>
   </g>
   <g id="patch_25">
    <path d="M 128.858921 307.584 
L 130.859874 307.584 
L 130.859874 307.584 
L 128.858921 307.584 
z
" clip-path="url(#p95595985f0)" style="fill: #1f77b4"/>
   </g>
   <g id="patch_26">
    <path d="M 131.360112 307.584 
L 133.361065 307.584 
L 133.361065 300.393644 
L 131.360112 300.393644 
z
" clip-path="url(#p95595985f0)" style="fill: #1f77b4"/>
   </g>
   <g id="patch_27">
    <path d="M 133.861303 307.584 
L 135.862255 307.584 
L 135.862255 307.584 
L 133.861303 307.584 
z
" clip-path="url(#p95595985f0)" style="fill: #1f77b4"/>
   </g>
   <g id="patch_28">
    <path d="M 136.362493 307.584 
L 138.363446 307.584 
L 138.363446 304.322946 
L 136.362493 304.322946 
z
" clip-path="url(#p95595985f0)" style="fill: #1f77b4"/>
   </g>
   <g id="patch_29">
    <path d="M 138.863684 307.584 
L 140.864637 307.584 
L 140.864637 307.584 
L 138.863684 307.584 
z
" clip-path="url(#p95595985f0)" style="fill: #1f77b4"/>
   </g>
   <g id="patch_30">
    <path d="M 141.364875 307.584 
L 143.365827 307.584 
L 143.365827 280.132344 
L 141.364875 280.132344 
z
" clip-path="url(#p95595985f0)" style="fill: #1f77b4"/>
   </g>
   <g id="patch_31">
    <path d="M 143.866065 307.584 
L 145.867018 307.584 
L 145.867018 288.565642 
L 143.866065 288.565642 
z
" clip-path="url(#p95595985f0)" style="fill: #1f77b4"/>
   </g>
   <g id="patch_32">
    <path d="M 146.367256 307.584 
L 148.368208 307.584 
L 148.368208 306.020298 
L 146.367256 306.020298 
z
" clip-path="url(#p95595985f0)" style="fill: #1f77b4"/>
   </g>
   <g id="patch_33">
    <path d="M 148.868447 307.584 
L 150.869399 307.584 
L 150.869399 185.695438 
L 148.868447 185.695438 
z
" clip-path="url(#p95595985f0)" style="fill: #1f77b4"/>
   </g>
   <g id="patch_34">
    <path d="M 151.369637 307.584 
L 153.37059 307.584 
L 153.37059 304.055647 
L 151.369637 304.055647 
z
" clip-path="url(#p95595985f0)" style="fill: #1f77b4"/>
   </g>
   <g id="patch_35">
    <path d="M 153.870828 307.584 
L 155.87178 307.584 
L 155.87178 307.584 
L 153.870828 307.584 
z
" clip-path="url(#p95595985f0)" style="fill: #1f77b4"/>
   </g>
   <g id="patch_36">
    <path d="M 156.372018 307.584 
L 158.372971 307.584 
L 158.372971 305.00456 
L 156.372018 305.00456 
z
" clip-path="url(#p95595985f0)" style="fill: #1f77b4"/>
   </g>
   <g id="patch_37">
    <path d="M 158.873209 307.584 
L 160.874162 307.584 
L 160.874162 307.584 
L 158.873209 307.584 
z
" clip-path="url(#p95595985f0)" style="fill: #1f77b4"/>
   </g>
   <g id="patch_38">
    <path d="M 161.3744 307.584 
L 163.375352 307.584 
L 163.375352 293.884902 
L 161.3744 293.884902 
z
" clip-path="url(#p95595985f0)" style="fill: #1f77b4"/>
   </g>
   <g id="patch_39">
    <path d="M 163.87559 307.584 
L 165.876543 307.584 
L 165.876543 299.752125 
L 163.87559 299.752125 
z
" clip-path="url(#p95595985f0)" style="fill: #1f77b4"/>
   </g>
   <g id="patch_40">
    <path d="M 166.376781 307.584 
L 168.377734 307.584 
L 168.377734 286.627721 
L 166.376781 286.627721 
z
" clip-path="url(#p95595985f0)" style="fill: #1f77b4"/>
   </g>
   <g id="patch_41">
    <path d="M 168.877972 307.584 
L 170.878924 307.584 
L 170.878924 307.584 
L 168.877972 307.584 
z
" clip-path="url(#p95595985f0)" style="fill: #1f77b4"/>
   </g>
   <g id="patch_42">
    <path d="M 171.379162 307.584 
L 173.380115 307.584 
L 173.380115 273.276112 
L 171.379162 273.276112 
z
" clip-path="url(#p95595985f0)" style="fill: #1f77b4"/>
   </g>
   <g id="patch_43">
    <path d="M 173.880353 307.584 
L 175.881306 307.584 
L 175.881306 307.584 
L 173.880353 307.584 
z
" clip-path="url(#p95595985f0)" style="fill: #1f77b4"/>
   </g>
   <g id="patch_44">
    <path d="M 176.381544 307.584 
L 178.382496 307.584 
L 178.382496 304.9511 
L 176.381544 304.9511 
z
" clip-path="url(#p95595985f0)" style="fill: #1f77b4"/>
   </g>
   <g id="patch_45">
    <path d="M 178.882734 307.584 
L 180.883687 307.584 
L 180.883687 295.381779 
L 178.882734 295.381779 
z
" clip-path="url(#p95595985f0)" style="fill: #1f77b4"/>
   </g>
   <g id="patch_46">
    <path d="M 181.383925 307.584 
L 183.384877 307.584 
L 183.384877 281.642586 
L 181.383925 281.642586 
z
" clip-path="url(#p95595985f0)" style="fill: #1f77b4"/>
   </g>
   <g id="patch_47">
    <path d="M 183.885116 307.584 
L 185.886068 307.584 
L 185.886068 307.584 
L 183.885116 307.584 
z
" clip-path="url(#p95595985f0)" style="fill: #1f77b4"/>
   </g>
   <g id="patch_48">
    <path d="M 186.386306 307.584 
L 188.387259 307.584 
L 188.387259 279.23689 
L 186.386306 279.23689 
z
" clip-path="url(#p95595985f0)" style="fill: #1f77b4"/>
   </g>
   <g id="patch_49">
    <path d="M 188.887497 307.584 
L 190.888449 307.584 
L 190.888449 307.584 
L 188.887497 307.584 
z
" clip-path="url(#p95595985f0)" style="fill: #1f77b4"/>
   </g>
   <g id="patch_50">
    <path d="M 191.388687 307.584 
L 193.38964 307.584 
L 193.38964 188.381798 
L 191.388687 188.381798 
z
" clip-path="url(#p95595985f0)" style="fill: #1f77b4"/>
   </g>
   <g id="patch_51">
    <path d="M 193.889878 307.584 
L 195.890831 307.584 
L 195.890831 293.777982 
L 193.889878 293.777982 
z
" clip-path="url(#p95595985f0)" style="fill: #1f77b4"/>
   </g>
   <g id="patch_52">
    <path d="M 196.391069 307.584 
L 198.392021 307.584 
L 198.392021 283.834441 
L 196.391069 283.834441 
z
" clip-path="url(#p95595985f0)" style="fill: #1f77b4"/>
   </g>
   <g id="patch_53">
    <path d="M 198.892259 307.584 
L 200.893212 307.584 
L 200.893212 307.584 
L 198.892259 307.584 
z
" clip-path="url(#p95595985f0)" style="fill: #1f77b4"/>
   </g>
   <g id="patch_54">
    <path d="M 201.39345 307.584 
L 203.394403 307.584 
L 203.394403 307.584 
L 201.39345 307.584 
z
" clip-path="url(#p95595985f0)" style="fill: #1f77b4"/>
   </g>
   <g id="patch_55">
    <path d="M 203.894641 307.584 
L 205.895593 307.584 
L 205.895593 307.584 
L 203.894641 307.584 
z
" clip-path="url(#p95595985f0)" style="fill: #1f77b4"/>
   </g>
   <g id="patch_56">
    <path d="M 206.395831 307.584 
L 208.396784 307.584 
L 208.396784 273.329572 
L 206.395831 273.329572 
z
" clip-path="url(#p95595985f0)" style="fill: #1f77b4"/>
   </g>
   <g id="patch_57">
    <path d="M 208.897022 307.584 
L 210.897975 307.584 
L 210.897975 307.584 
L 208.897022 307.584 
z
" clip-path="url(#p95595985f0)" style="fill: #1f77b4"/>
   </g>
   <g id="patch_58">
    <path d="M 211.398213 307.584 
L 213.399165 307.584 
L 213.399165 267.515808 
L 211.398213 267.515808 
z
" clip-path="url(#p95595985f0)" style="fill: #1f77b4"/>
   </g>
   <g id="patch_59">
    <path d="M 213.899403 307.584 
L 215.900356 307.584 
L 215.900356 303.748252 
L 213.899403 303.748252 
z
" clip-path="url(#p95595985f0)" style="fill: #1f77b4"/>
   </g>
   <g id="patch_60">
    <path d="M 216.400594 307.584 
L 218.401546 307.584 
L 218.401546 307.584 
L 216.400594 307.584 
z
" clip-path="url(#p95595985f0)" style="fill: #1f77b4"/>
   </g>
   <g id="patch_61">
    <path d="M 218.901785 307.584 
L 220.902737 307.584 
L 220.902737 307.584 
L 218.901785 307.584 
z
" clip-path="url(#p95595985f0)" style="fill: #1f77b4"/>
   </g>
   <g id="patch_62">
    <path d="M 221.402975 307.584 
L 223.403928 307.584 
L 223.403928 303.601238 
L 221.402975 303.601238 
z
" clip-path="url(#p95595985f0)" style="fill: #1f77b4"/>
   </g>
   <g id="patch_63">
    <path d="M 223.904166 307.584 
L 225.905118 307.584 
L 225.905118 299.71203 
L 223.904166 299.71203 
z
" clip-path="url(#p95595985f0)" style="fill: #1f77b4"/>
   </g>
   <g id="patch_64">
    <path d="M 226.405356 307.584 
L 228.406309 307.584 
L 228.406309 307.584 
L 226.405356 307.584 
z
" clip-path="url(#p95595985f0)" style="fill: #1f77b4"/>
   </g>
   <g id="patch_65">
    <path d="M 228.906547 307.584 
L 230.9075 307.584 
L 230.9075 307.584 
L 228.906547 307.584 
z
" clip-path="url(#p95595985f0)" style="fill: #1f77b4"/>
   </g>
   <g id="patch_66">
    <path d="M 231.407738 307.584 
L 233.40869 307.584 
L 233.40869 307.584 
L 231.407738 307.584 
z
" clip-path="url(#p95595985f0)" style="fill: #1f77b4"/>
   </g>
   <g id="patch_67">
    <path d="M 233.908928 307.584 
L 235.909881 307.584 
L 235.909881 289.300716 
L 233.908928 289.300716 
z
" clip-path="url(#p95595985f0)" style="fill: #1f77b4"/>
   </g>
   <g id="patch_68">
    <path d="M 236.410119 307.584 
L 238.411072 307.584 
L 238.411072 301.409382 
L 236.410119 301.409382 
z
" clip-path="url(#p95595985f0)" style="fill: #1f77b4"/>
   </g>
   <g id="patch_69">
    <path d="M 238.91131 307.584 
L 240.912262 307.584 
L 240.912262 282.698419 
L 238.91131 282.698419 
z
" clip-path="url(#p95595985f0)" style="fill: #1f77b4"/>
   </g>
   <g id="patch_70">
    <path d="M 241.4125 307.584 
L 243.413453 307.584 
L 243.413453 262.557403 
L 241.4125 262.557403 
z
" clip-path="url(#p95595985f0)" style="fill: #1f77b4"/>
   </g>
   <g id="patch_71">
    <path d="M 243.913691 307.584 
L 245.914644 307.584 
L 245.914644 307.584 
L 243.913691 307.584 
z
" clip-path="url(#p95595985f0)" style="fill: #1f77b4"/>
   </g>
   <g id="patch_72">
    <path d="M 246.414882 307.584 
L 248.415834 307.584 
L 248.415834 302.064266 
L 246.414882 302.064266 
z
" clip-path="url(#p95595985f0)" style="fill: #1f77b4"/>
   </g>
   <g id="patch_73">
    <path d="M 248.916072 307.584 
L 250.917025 307.584 
L 250.917025 307.584 
L 248.916072 307.584 
z
" clip-path="url(#p95595985f0)" style="fill: #1f77b4"/>
   </g>
   <g id="patch_74">
    <path d="M 251.417263 307.584 
L 253.418215 307.584 
L 253.418215 307.584 
L 251.417263 307.584 
z
" clip-path="url(#p95595985f0)" style="fill: #1f77b4"/>
   </g>
   <g id="patch_75">
    <path d="M 253.918454 307.584 
L 255.919406 307.584 
L 255.919406 307.584 
L 253.918454 307.584 
z
" clip-path="url(#p95595985f0)" style="fill: #1f77b4"/>
   </g>
   <g id="patch_76">
    <path d="M 256.419644 307.584 
L 258.420597 307.584 
L 258.420597 229.666202 
L 256.419644 229.666202 
z
" clip-path="url(#p95595985f0)" style="fill: #1f77b4"/>
   </g>
   <g id="patch_77">
    <path d="M 258.920835 307.584 
L 260.921787 307.584 
L 260.921787 307.584 
L 258.920835 307.584 
z
" clip-path="url(#p95595985f0)" style="fill: #1f77b4"/>
   </g>
   <g id="patch_78">
    <path d="M 261.422025 307.584 
L 263.422978 307.584 
L 263.422978 295.288224 
L 261.422025 295.288224 
z
" clip-path="url(#p95595985f0)" style="fill: #1f77b4"/>
   </g>
   <g id="patch_79">
    <path d="M 263.923216 307.584 
L 265.924169 307.584 
L 265.924169 307.584 
L 263.923216 307.584 
z
" clip-path="url(#p95595985f0)" style="fill: #1f77b4"/>
   </g>
   <g id="patch_80">
    <path d="M 266.424407 307.584 
L 268.425359 307.584 
L 268.425359 307.584 
L 266.424407 307.584 
z
" clip-path="url(#p95595985f0)" style="fill: #1f77b4"/>
   </g>
   <g id="patch_81">
    <path d="M 268.925597 307.584 
L 270.92655 307.584 
L 270.92655 307.584 
L 268.925597 307.584 
z
" clip-path="url(#p95595985f0)" style="fill: #1f77b4"/>
   </g>
   <g id="patch_82">
    <path d="M 271.426788 307.584 
L 273.427741 307.584 
L 273.427741 298.723022 
L 271.426788 298.723022 
z
" clip-path="url(#p95595985f0)" style="fill: #1f77b4"/>
   </g>
   <g id="patch_83">
    <path d="M 273.927979 307.584 
L 275.928931 307.584 
L 275.928931 307.584 
L 273.927979 307.584 
z
" clip-path="url(#p95595985f0)" style="fill: #1f77b4"/>
   </g>
   <g id="patch_84">
    <path d="M 276.429169 307.584 
L 278.430122 307.584 
L 278.430122 307.584 
L 276.429169 307.584 
z
" clip-path="url(#p95595985f0)" style="fill: #1f77b4"/>
   </g>
   <g id="patch_85">
    <path d="M 278.93036 307.584 
L 280.931313 307.584 
L 280.931313 307.584 
L 278.93036 307.584 
z
" clip-path="url(#p95595985f0)" style="fill: #1f77b4"/>
   </g>
   <g id="patch_86">
    <path d="M 281.431551 307.584 
L 283.432503 307.584 
L 283.432503 301.556397 
L 281.431551 301.556397 
z
" clip-path="url(#p95595985f0)" style="fill: #1f77b4"/>
   </g>
   <g id="patch_87">
    <path d="M 283.932741 307.584 
L 285.933694 307.584 
L 285.933694 307.584 
L 283.932741 307.584 
z
" clip-path="url(#p95595985f0)" style="fill: #1f77b4"/>
   </g>
   <g id="patch_88">
    <path d="M 286.433932 307.584 
L 288.434884 307.584 
L 288.434884 307.584 
L 286.433932 307.584 
z
" clip-path="url(#p95595985f0)" style="fill: #1f77b4"/>
   </g>
   <g id="patch_89">
    <path d="M 288.935123 307.584 
L 290.936075 307.584 
L 290.936075 307.584 
L 288.935123 307.584 
z
" clip-path="url(#p95595985f0)" style="fill: #1f77b4"/>
   </g>
   <g id="patch_90">
    <path d="M 291.436313 307.584 
L 293.437266 307.584 
L 293.437266 292.829069 
L 291.436313 292.829069 
z
" clip-path="url(#p95595985f0)" style="fill: #1f77b4"/>
   </g>
   <g id="patch_91">
    <path d="M 293.937504 307.584 
L 295.938456 307.584 
L 295.938456 305.05802 
L 293.937504 305.05802 
z
" clip-path="url(#p95595985f0)" style="fill: #1f77b4"/>
   </g>
   <g id="patch_92">
    <path d="M 296.438694 307.584 
L 298.439647 307.584 
L 298.439647 307.584 
L 296.438694 307.584 
z
" clip-path="url(#p95595985f0)" style="fill: #1f77b4"/>
   </g>
   <g id="patch_93">
    <path d="M 298.939885 307.584 
L 300.940838 307.584 
L 300.940838 307.584 
L 298.939885 307.584 
z
" clip-path="url(#p95595985f0)" style="fill: #1f77b4"/>
   </g>
   <g id="patch_94">
    <path d="M 301.441076 307.584 
L 303.442028 307.584 
L 303.442028 307.584 
L 301.441076 307.584 
z
" clip-path="url(#p95595985f0)" style="fill: #1f77b4"/>
   </g>
   <g id="patch_95">
    <path d="M 303.942266 307.584 
L 305.943219 307.584 
L 305.943219 301.569762 
L 303.942266 301.569762 
z
" clip-path="url(#p95595985f0)" style="fill: #1f77b4"/>
   </g>
   <g id="patch_96">
    <path d="M 306.443457 307.584 
L 308.44441 307.584 
L 308.44441 307.584 
L 306.443457 307.584 
z
" clip-path="url(#p95595985f0)" style="fill: #1f77b4"/>
   </g>
   <g id="patch_97">
    <path d="M 308.944648 307.584 
L 310.9456 307.584 
L 310.9456 307.584 
L 308.944648 307.584 
z
" clip-path="url(#p95595985f0)" style="fill: #1f77b4"/>
   </g>
   <g id="patch_98">
    <path d="M 311.445838 307.584 
L 313.446791 307.584 
L 313.446791 307.584 
L 311.445838 307.584 
z
" clip-path="url(#p95595985f0)" style="fill: #1f77b4"/>
   </g>
   <g id="patch_99">
    <path d="M 313.947029 307.584 
L 315.947982 307.584 
L 315.947982 307.584 
L 313.947029 307.584 
z
" clip-path="url(#p95595985f0)" style="fill: #1f77b4"/>
   </g>
   <g id="patch_100">
    <path d="M 316.44822 307.584 
L 318.449172 307.584 
L 318.449172 307.584 
L 316.44822 307.584 
z
" clip-path="url(#p95595985f0)" style="fill: #1f77b4"/>
   </g>
   <g id="patch_101">
    <path d="M 318.94941 307.584 
L 320.950363 307.584 
L 320.950363 307.584 
L 318.94941 307.584 
z
" clip-path="url(#p95595985f0)" style="fill: #1f77b4"/>
   </g>
   <g id="patch_102">
    <path d="M 321.450601 307.584 
L 323.451553 307.584 
L 323.451553 294.325946 
L 321.450601 294.325946 
z
" clip-path="url(#p95595985f0)" style="fill: #1f77b4"/>
   </g>
   <g id="patch_103">
    <path d="M 323.951792 307.584 
L 325.952744 307.584 
L 325.952744 307.584 
L 323.951792 307.584 
z
" clip-path="url(#p95595985f0)" style="fill: #1f77b4"/>
   </g>
   <g id="patch_104">
    <path d="M 326.452982 307.584 
L 328.453935 307.584 
L 328.453935 307.584 
L 326.452982 307.584 
z
" clip-path="url(#p95595985f0)" style="fill: #1f77b4"/>
   </g>
   <g id="patch_105">
    <path d="M 328.954173 307.584 
L 330.955125 307.584 
L 330.955125 301.502937 
L 328.954173 301.502937 
z
" clip-path="url(#p95595985f0)" style="fill: #1f77b4"/>
   </g>
   <g id="patch_106">
    <path d="M 331.455363 307.584 
L 333.456316 307.584 
L 333.456316 304.389771 
L 331.455363 304.389771 
z
" clip-path="url(#p95595985f0)" style="fill: #1f77b4"/>
   </g>
   <g id="patch_107">
    <path d="M 333.956554 307.584 
L 335.957507 307.584 
L 335.957507 307.584 
L 333.956554 307.584 
z
" clip-path="url(#p95595985f0)" style="fill: #1f77b4"/>
   </g>
   <g id="patch_108">
    <path d="M 336.457745 307.584 
L 338.458697 307.584 
L 338.458697 307.584 
L 336.457745 307.584 
z
" clip-path="url(#p95595985f0)" style="fill: #1f77b4"/>
   </g>
   <g id="patch_109">
    <path d="M 338.958935 307.584 
L 340.959888 307.584 
L 340.959888 307.584 
L 338.958935 307.584 
z
" clip-path="url(#p95595985f0)" style="fill: #1f77b4"/>
   </g>
   <g id="patch_110">
    <path d="M 341.460126 307.584 
L 343.461079 307.584 
L 343.461079 307.584 
L 341.460126 307.584 
z
" clip-path="url(#p95595985f0)" style="fill: #1f77b4"/>
   </g>
   <g id="patch_111">
    <path d="M 343.961317 307.584 
L 345.962269 307.584 
L 345.962269 307.584 
L 343.961317 307.584 
z
" clip-path="url(#p95595985f0)" style="fill: #1f77b4"/>
   </g>
   <g id="patch_112">
    <path d="M 346.462507 307.584 
L 348.46346 307.584 
L 348.46346 287.790474 
L 346.462507 287.790474 
z
" clip-path="url(#p95595985f0)" style="fill: #1f77b4"/>
   </g>
   <g id="patch_113">
    <path d="M 348.963698 307.584 
L 350.964651 307.584 
L 350.964651 307.584 
L 348.963698 307.584 
z
" clip-path="url(#p95595985f0)" style="fill: #1f77b4"/>
   </g>
   <g id="patch_114">
    <path d="M 351.464889 307.584 
L 353.465841 307.584 
L 353.465841 307.584 
L 351.464889 307.584 
z
" clip-path="url(#p95595985f0)" style="fill: #1f77b4"/>
   </g>
   <g id="patch_115">
    <path d="M 353.966079 307.584 
L 355.967032 307.584 
L 355.967032 307.584 
L 353.966079 307.584 
z
" clip-path="url(#p95595985f0)" style="fill: #1f77b4"/>
   </g>
   <g id="patch_116">
    <path d="M 356.46727 307.584 
L 358.468222 307.584 
L 358.468222 307.584 
L 356.46727 307.584 
z
" clip-path="url(#p95595985f0)" style="fill: #1f77b4"/>
   </g>
   <g id="patch_117">
    <path d="M 358.968461 307.584 
L 360.969413 307.584 
L 360.969413 307.584 
L 358.968461 307.584 
z
" clip-path="url(#p95595985f0)" style="fill: #1f77b4"/>
   </g>
   <g id="patch_118">
    <path d="M 361.469651 307.584 
L 363.470604 307.584 
L 363.470604 307.584 
L 361.469651 307.584 
z
" clip-path="url(#p95595985f0)" style="fill: #1f77b4"/>
   </g>
   <g id="patch_119">
    <path d="M 363.970842 307.584 
L 365.971794 307.584 
L 365.971794 307.584 
L 363.970842 307.584 
z
" clip-path="url(#p95595985f0)" style="fill: #1f77b4"/>
   </g>
   <g id="patch_120">
    <path d="M 366.472032 307.584 
L 368.472985 307.584 
L 368.472985 302.852799 
L 366.472032 302.852799 
z
" clip-path="url(#p95595985f0)" style="fill: #1f77b4"/>
   </g>
   <g id="patch_121">
    <path d="M 368.973223 307.584 
L 370.974176 307.584 
L 370.974176 307.584 
L 368.973223 307.584 
z
" clip-path="url(#p95595985f0)" style="fill: #1f77b4"/>
   </g>
   <g id="patch_122">
    <path d="M 371.474414 307.584 
L 373.475366 307.584 
L 373.475366 297.172685 
L 371.474414 297.172685 
z
" clip-path="url(#p95595985f0)" style="fill: #1f77b4"/>
   </g>
   <g id="patch_123">
    <path d="M 373.975604 307.584 
L 375.976557 307.584 
L 375.976557 307.584 
L 373.975604 307.584 
z
" clip-path="url(#p95595985f0)" style="fill: #1f77b4"/>
   </g>
   <g id="patch_124">
    <path d="M 376.476795 307.584 
L 378.477748 307.584 
L 378.477748 307.584 
L 376.476795 307.584 
z
" clip-path="url(#p95595985f0)" style="fill: #1f77b4"/>
   </g>
   <g id="patch_125">
    <path d="M 378.977986 307.584 
L 380.978938 307.584 
L 380.978938 307.584 
L 378.977986 307.584 
z
" clip-path="url(#p95595985f0)" style="fill: #1f77b4"/>
   </g>
   <g id="patch_126">
    <path d="M 381.479176 307.584 
L 383.480129 307.584 
L 383.480129 307.584 
L 381.479176 307.584 
z
" clip-path="url(#p95595985f0)" style="fill: #1f77b4"/>
   </g>
   <g id="patch_127">
    <path d="M 383.980367 307.584 
L 385.98132 307.584 
L 385.98132 307.584 
L 383.980367 307.584 
z
" clip-path="url(#p95595985f0)" style="fill: #1f77b4"/>
   </g>
   <g id="patch_128">
    <path d="M 386.481558 307.584 
L 388.48251 307.584 
L 388.48251 307.584 
L 386.481558 307.584 
z
" clip-path="url(#p95595985f0)" style="fill: #1f77b4"/>
   </g>
   <g id="patch_129">
    <path d="M 388.982748 307.584 
L 390.983701 307.584 
L 390.983701 307.584 
L 388.982748 307.584 
z
" clip-path="url(#p95595985f0)" style="fill: #1f77b4"/>
   </g>
   <g id="patch_130">
    <path d="M 391.483939 307.584 
L 393.484891 307.584 
L 393.484891 307.584 
L 391.483939 307.584 
z
" clip-path="url(#p95595985f0)" style="fill: #1f77b4"/>
   </g>
   <g id="patch_131">
    <path d="M 393.98513 307.584 
L 395.986082 307.584 
L 395.986082 303.146829 
L 393.98513 303.146829 
z
" clip-path="url(#p95595985f0)" style="fill: #1f77b4"/>
   </g>
   <g id="patch_132">
    <path d="M 396.48632 307.584 
L 398.487273 307.584 
L 398.487273 307.584 
L 396.48632 307.584 
z
" clip-path="url(#p95595985f0)" style="fill: #1f77b4"/>
   </g>
   <g id="matplotlib.axis_1">
    <g id="xtick_1">
     <g id="line2d_1">
      <defs>
       <path id="m731e803580" d="M 0 0 
L 0 3.5 
" style="stroke: #000000; stroke-width: 0.8"/>
      </defs>
      <g>
       <use xlink:href="#m731e803580" x="72.332013" y="307.584" style="stroke: #000000; stroke-width: 0.8"/>
      </g>
     </g>
     <g id="text_1">
      <!-- 0 -->
      <g transform="translate(69.150763 322.182437) scale(0.1 -0.1)">
       <defs>
        <path id="DejaVuSans-30" d="M 2034 4250 
Q 1547 4250 1301 3770 
Q 1056 3291 1056 2328 
Q 1056 1369 1301 889 
Q 1547 409 2034 409 
Q 2525 409 2770 889 
Q 3016 1369 3016 2328 
Q 3016 3291 2770 3770 
Q 2525 4250 2034 4250 
z
M 2034 4750 
Q 2819 4750 3233 4129 
Q 3647 3509 3647 2328 
Q 3647 1150 3233 529 
Q 2819 -91 2034 -91 
Q 1250 -91 836 529 
Q 422 1150 422 2328 
Q 422 3509 836 4129 
Q 1250 4750 2034 4750 
z
" transform="scale(0.015625)"/>
       </defs>
       <use xlink:href="#DejaVuSans-30"/>
      </g>
     </g>
    </g>
    <g id="xtick_2">
     <g id="line2d_2">
      <g>
       <use xlink:href="#m731e803580" x="122.355826" y="307.584" style="stroke: #000000; stroke-width: 0.8"/>
      </g>
     </g>
     <g id="text_2">
      <!-- 20 -->
      <g transform="translate(115.993326 322.182437) scale(0.1 -0.1)">
       <defs>
        <path id="DejaVuSans-32" d="M 1228 531 
L 3431 531 
L 3431 0 
L 469 0 
L 469 531 
Q 828 903 1448 1529 
Q 2069 2156 2228 2338 
Q 2531 2678 2651 2914 
Q 2772 3150 2772 3378 
Q 2772 3750 2511 3984 
Q 2250 4219 1831 4219 
Q 1534 4219 1204 4116 
Q 875 4013 500 3803 
L 500 4441 
Q 881 4594 1212 4672 
Q 1544 4750 1819 4750 
Q 2544 4750 2975 4387 
Q 3406 4025 3406 3419 
Q 3406 3131 3298 2873 
Q 3191 2616 2906 2266 
Q 2828 2175 2409 1742 
Q 1991 1309 1228 531 
z
" transform="scale(0.015625)"/>
       </defs>
       <use xlink:href="#DejaVuSans-32"/>
       <use xlink:href="#DejaVuSans-30" x="63.623047"/>
      </g>
     </g>
    </g>
    <g id="xtick_3">
     <g id="line2d_3">
      <g>
       <use xlink:href="#m731e803580" x="172.379639" y="307.584" style="stroke: #000000; stroke-width: 0.8"/>
      </g>
     </g>
     <g id="text_3">
      <!-- 40 -->
      <g transform="translate(166.017139 322.182437) scale(0.1 -0.1)">
       <defs>
        <path id="DejaVuSans-34" d="M 2419 4116 
L 825 1625 
L 2419 1625 
L 2419 4116 
z
M 2253 4666 
L 3047 4666 
L 3047 1625 
L 3713 1625 
L 3713 1100 
L 3047 1100 
L 3047 0 
L 2419 0 
L 2419 1100 
L 313 1100 
L 313 1709 
L 2253 4666 
z
" transform="scale(0.015625)"/>
       </defs>
       <use xlink:href="#DejaVuSans-34"/>
       <use xlink:href="#DejaVuSans-30" x="63.623047"/>
      </g>
     </g>
    </g>
    <g id="xtick_4">
     <g id="line2d_4">
      <g>
       <use xlink:href="#m731e803580" x="222.403451" y="307.584" style="stroke: #000000; stroke-width: 0.8"/>
      </g>
     </g>
     <g id="text_4">
      <!-- 60 -->
      <g transform="translate(216.040951 322.182437) scale(0.1 -0.1)">
       <defs>
        <path id="DejaVuSans-36" d="M 2113 2584 
Q 1688 2584 1439 2293 
Q 1191 2003 1191 1497 
Q 1191 994 1439 701 
Q 1688 409 2113 409 
Q 2538 409 2786 701 
Q 3034 994 3034 1497 
Q 3034 2003 2786 2293 
Q 2538 2584 2113 2584 
z
M 3366 4563 
L 3366 3988 
Q 3128 4100 2886 4159 
Q 2644 4219 2406 4219 
Q 1781 4219 1451 3797 
Q 1122 3375 1075 2522 
Q 1259 2794 1537 2939 
Q 1816 3084 2150 3084 
Q 2853 3084 3261 2657 
Q 3669 2231 3669 1497 
Q 3669 778 3244 343 
Q 2819 -91 2113 -91 
Q 1303 -91 875 529 
Q 447 1150 447 2328 
Q 447 3434 972 4092 
Q 1497 4750 2381 4750 
Q 2619 4750 2861 4703 
Q 3103 4656 3366 4563 
z
" transform="scale(0.015625)"/>
       </defs>
       <use xlink:href="#DejaVuSans-36"/>
       <use xlink:href="#DejaVuSans-30" x="63.623047"/>
      </g>
     </g>
    </g>
    <g id="xtick_5">
     <g id="line2d_5">
      <g>
       <use xlink:href="#m731e803580" x="272.427264" y="307.584" style="stroke: #000000; stroke-width: 0.8"/>
      </g>
     </g>
     <g id="text_5">
      <!-- 80 -->
      <g transform="translate(266.064764 322.182437) scale(0.1 -0.1)">
       <defs>
        <path id="DejaVuSans-38" d="M 2034 2216 
Q 1584 2216 1326 1975 
Q 1069 1734 1069 1313 
Q 1069 891 1326 650 
Q 1584 409 2034 409 
Q 2484 409 2743 651 
Q 3003 894 3003 1313 
Q 3003 1734 2745 1975 
Q 2488 2216 2034 2216 
z
M 1403 2484 
Q 997 2584 770 2862 
Q 544 3141 544 3541 
Q 544 4100 942 4425 
Q 1341 4750 2034 4750 
Q 2731 4750 3128 4425 
Q 3525 4100 3525 3541 
Q 3525 3141 3298 2862 
Q 3072 2584 2669 2484 
Q 3125 2378 3379 2068 
Q 3634 1759 3634 1313 
Q 3634 634 3220 271 
Q 2806 -91 2034 -91 
Q 1263 -91 848 271 
Q 434 634 434 1313 
Q 434 1759 690 2068 
Q 947 2378 1403 2484 
z
M 1172 3481 
Q 1172 3119 1398 2916 
Q 1625 2713 2034 2713 
Q 2441 2713 2670 2916 
Q 2900 3119 2900 3481 
Q 2900 3844 2670 4047 
Q 2441 4250 2034 4250 
Q 1625 4250 1398 4047 
Q 1172 3844 1172 3481 
z
" transform="scale(0.015625)"/>
       </defs>
       <use xlink:href="#DejaVuSans-38"/>
       <use xlink:href="#DejaVuSans-30" x="63.623047"/>
      </g>
     </g>
    </g>
    <g id="xtick_6">
     <g id="line2d_6">
      <g>
       <use xlink:href="#m731e803580" x="322.451077" y="307.584" style="stroke: #000000; stroke-width: 0.8"/>
      </g>
     </g>
     <g id="text_6">
      <!-- 100 -->
      <g transform="translate(312.907327 322.182437) scale(0.1 -0.1)">
       <defs>
        <path id="DejaVuSans-31" d="M 794 531 
L 1825 531 
L 1825 4091 
L 703 3866 
L 703 4441 
L 1819 4666 
L 2450 4666 
L 2450 531 
L 3481 531 
L 3481 0 
L 794 0 
L 794 531 
z
" transform="scale(0.015625)"/>
       </defs>
       <use xlink:href="#DejaVuSans-31"/>
       <use xlink:href="#DejaVuSans-30" x="63.623047"/>
       <use xlink:href="#DejaVuSans-30" x="127.246094"/>
      </g>
     </g>
    </g>
    <g id="xtick_7">
     <g id="line2d_7">
      <g>
       <use xlink:href="#m731e803580" x="372.47489" y="307.584" style="stroke: #000000; stroke-width: 0.8"/>
      </g>
     </g>
     <g id="text_7">
      <!-- 120 -->
      <g transform="translate(362.93114 322.182437) scale(0.1 -0.1)">
       <use xlink:href="#DejaVuSans-31"/>
       <use xlink:href="#DejaVuSans-32" x="63.623047"/>
       <use xlink:href="#DejaVuSans-30" x="127.246094"/>
      </g>
     </g>
    </g>
   </g>
   <g id="matplotlib.axis_2">
    <g id="ytick_1">
     <g id="line2d_8">
      <defs>
       <path id="mdf3c816198" d="M 0 0 
L -3.5 0 
" style="stroke: #000000; stroke-width: 0.8"/>
      </defs>
      <g>
       <use xlink:href="#mdf3c816198" x="57.6" y="307.584" style="stroke: #000000; stroke-width: 0.8"/>
      </g>
     </g>
     <g id="text_8">
      <!-- 0 -->
      <g transform="translate(44.2375 311.383219) scale(0.1 -0.1)">
       <use xlink:href="#DejaVuSans-30"/>
      </g>
     </g>
    </g>
    <g id="ytick_2">
     <g id="line2d_9">
      <g>
       <use xlink:href="#mdf3c816198" x="57.6" y="274.171565" style="stroke: #000000; stroke-width: 0.8"/>
      </g>
     </g>
     <g id="text_9">
      <!-- 5000 -->
      <g transform="translate(25.15 277.970784) scale(0.1 -0.1)">
       <defs>
        <path id="DejaVuSans-35" d="M 691 4666 
L 3169 4666 
L 3169 4134 
L 1269 4134 
L 1269 2991 
Q 1406 3038 1543 3061 
Q 1681 3084 1819 3084 
Q 2600 3084 3056 2656 
Q 3513 2228 3513 1497 
Q 3513 744 3044 326 
Q 2575 -91 1722 -91 
Q 1428 -91 1123 -41 
Q 819 9 494 109 
L 494 744 
Q 775 591 1075 516 
Q 1375 441 1709 441 
Q 2250 441 2565 725 
Q 2881 1009 2881 1497 
Q 2881 1984 2565 2268 
Q 2250 2553 1709 2553 
Q 1456 2553 1204 2497 
Q 953 2441 691 2322 
L 691 4666 
z
" transform="scale(0.015625)"/>
       </defs>
       <use xlink:href="#DejaVuSans-35"/>
       <use xlink:href="#DejaVuSans-30" x="63.623047"/>
       <use xlink:href="#DejaVuSans-30" x="127.246094"/>
       <use xlink:href="#DejaVuSans-30" x="190.869141"/>
      </g>
     </g>
    </g>
    <g id="ytick_3">
     <g id="line2d_10">
      <g>
       <use xlink:href="#mdf3c816198" x="57.6" y="240.759131" style="stroke: #000000; stroke-width: 0.8"/>
      </g>
     </g>
     <g id="text_10">
      <!-- 10000 -->
      <g transform="translate(18.7875 244.558349) scale(0.1 -0.1)">
       <use xlink:href="#DejaVuSans-31"/>
       <use xlink:href="#DejaVuSans-30" x="63.623047"/>
       <use xlink:href="#DejaVuSans-30" x="127.246094"/>
       <use xlink:href="#DejaVuSans-30" x="190.869141"/>
       <use xlink:href="#DejaVuSans-30" x="254.492188"/>
      </g>
     </g>
    </g>
    <g id="ytick_4">
     <g id="line2d_11">
      <g>
       <use xlink:href="#mdf3c816198" x="57.6" y="207.346696" style="stroke: #000000; stroke-width: 0.8"/>
      </g>
     </g>
     <g id="text_11">
      <!-- 15000 -->
      <g transform="translate(18.7875 211.145915) scale(0.1 -0.1)">
       <use xlink:href="#DejaVuSans-31"/>
       <use xlink:href="#DejaVuSans-35" x="63.623047"/>
       <use xlink:href="#DejaVuSans-30" x="127.246094"/>
       <use xlink:href="#DejaVuSans-30" x="190.869141"/>
       <use xlink:href="#DejaVuSans-30" x="254.492188"/>
      </g>
     </g>
    </g>
    <g id="ytick_5">
     <g id="line2d_12">
      <g>
       <use xlink:href="#mdf3c816198" x="57.6" y="173.934261" style="stroke: #000000; stroke-width: 0.8"/>
      </g>
     </g>
     <g id="text_12">
      <!-- 20000 -->
      <g transform="translate(18.7875 177.73348) scale(0.1 -0.1)">
       <use xlink:href="#DejaVuSans-32"/>
       <use xlink:href="#DejaVuSans-30" x="63.623047"/>
       <use xlink:href="#DejaVuSans-30" x="127.246094"/>
       <use xlink:href="#DejaVuSans-30" x="190.869141"/>
       <use xlink:href="#DejaVuSans-30" x="254.492188"/>
      </g>
     </g>
    </g>
    <g id="ytick_6">
     <g id="line2d_13">
      <g>
       <use xlink:href="#mdf3c816198" x="57.6" y="140.521826" style="stroke: #000000; stroke-width: 0.8"/>
      </g>
     </g>
     <g id="text_13">
      <!-- 25000 -->
      <g transform="translate(18.7875 144.321045) scale(0.1 -0.1)">
       <use xlink:href="#DejaVuSans-32"/>
       <use xlink:href="#DejaVuSans-35" x="63.623047"/>
       <use xlink:href="#DejaVuSans-30" x="127.246094"/>
       <use xlink:href="#DejaVuSans-30" x="190.869141"/>
       <use xlink:href="#DejaVuSans-30" x="254.492188"/>
      </g>
     </g>
    </g>
    <g id="ytick_7">
     <g id="line2d_14">
      <g>
       <use xlink:href="#mdf3c816198" x="57.6" y="107.109392" style="stroke: #000000; stroke-width: 0.8"/>
      </g>
     </g>
     <g id="text_14">
      <!-- 30000 -->
      <g transform="translate(18.7875 110.90861) scale(0.1 -0.1)">
       <defs>
        <path id="DejaVuSans-33" d="M 2597 2516 
Q 3050 2419 3304 2112 
Q 3559 1806 3559 1356 
Q 3559 666 3084 287 
Q 2609 -91 1734 -91 
Q 1441 -91 1130 -33 
Q 819 25 488 141 
L 488 750 
Q 750 597 1062 519 
Q 1375 441 1716 441 
Q 2309 441 2620 675 
Q 2931 909 2931 1356 
Q 2931 1769 2642 2001 
Q 2353 2234 1838 2234 
L 1294 2234 
L 1294 2753 
L 1863 2753 
Q 2328 2753 2575 2939 
Q 2822 3125 2822 3475 
Q 2822 3834 2567 4026 
Q 2313 4219 1838 4219 
Q 1578 4219 1281 4162 
Q 984 4106 628 3988 
L 628 4550 
Q 988 4650 1302 4700 
Q 1616 4750 1894 4750 
Q 2613 4750 3031 4423 
Q 3450 4097 3450 3541 
Q 3450 3153 3228 2886 
Q 3006 2619 2597 2516 
z
" transform="scale(0.015625)"/>
       </defs>
       <use xlink:href="#DejaVuSans-33"/>
       <use xlink:href="#DejaVuSans-30" x="63.623047"/>
       <use xlink:href="#DejaVuSans-30" x="127.246094"/>
       <use xlink:href="#DejaVuSans-30" x="190.869141"/>
       <use xlink:href="#DejaVuSans-30" x="254.492188"/>
      </g>
     </g>
    </g>
    <g id="ytick_8">
     <g id="line2d_15">
      <g>
       <use xlink:href="#mdf3c816198" x="57.6" y="73.696957" style="stroke: #000000; stroke-width: 0.8"/>
      </g>
     </g>
     <g id="text_15">
      <!-- 35000 -->
      <g transform="translate(18.7875 77.496176) scale(0.1 -0.1)">
       <use xlink:href="#DejaVuSans-33"/>
       <use xlink:href="#DejaVuSans-35" x="63.623047"/>
       <use xlink:href="#DejaVuSans-30" x="127.246094"/>
       <use xlink:href="#DejaVuSans-30" x="190.869141"/>
       <use xlink:href="#DejaVuSans-30" x="254.492188"/>
      </g>
     </g>
    </g>
   </g>
   <g id="patch_133">
    <path d="M 57.6 307.584 
L 57.6 41.472 
" style="fill: none; stroke: #000000; stroke-width: 0.8; stroke-linejoin: miter; stroke-linecap: square"/>
   </g>
   <g id="patch_134">
    <path d="M 414.72 307.584 
L 414.72 41.472 
" style="fill: none; stroke: #000000; stroke-width: 0.8; stroke-linejoin: miter; stroke-linecap: square"/>
   </g>
   <g id="patch_135">
    <path d="M 57.6 307.584 
L 414.72 307.584 
" style="fill: none; stroke: #000000; stroke-width: 0.8; stroke-linejoin: miter; stroke-linecap: square"/>
   </g>
   <g id="patch_136">
    <path d="M 57.6 41.472 
L 414.72 41.472 
" style="fill: none; stroke: #000000; stroke-width: 0.8; stroke-linejoin: miter; stroke-linecap: square"/>
   </g>
  </g>
 </g>
 <defs>
  <clipPath id="p95595985f0">
   <rect x="57.6" y="41.472" width="357.12" height="266.112"/>
  </clipPath>
 </defs>
</svg>
